<?xml version="1.0" standalone="no"?>
<!DOCTYPE svg PUBLIC "-//W3C//DTD SVG 20010904//EN"
 "http://www.w3.org/TR/2001/REC-SVG-20010904/DTD/svg10.dtd">
<svg version="1.0" xmlns="http://www.w3.org/2000/svg"
 width="1500.000000pt" height="1500.000000pt" viewBox="0 0 1500.000000 1500.000000"
 preserveAspectRatio="xMidYMid meet">
<metadata>
Created by potrace 1.14, written by Peter Selinger 2001-2017
</metadata>
<g transform="translate(0.000000,1500.000000) scale(0.100000,-0.100000)"
fill="#000000" stroke="none">
<path d="M7322 14164 c-285 -52 -521 -204 -676 -437 -66 -99 -82 -134 -191
-417 -46 -118 -372 -962 -725 -1875 -353 -913 -706 -1826 -785 -2030 -79 -203
-524 -1355 -990 -2560 -466 -1204 -961 -2485 -1100 -2845 -139 -360 -356 -918
-481 -1240 -125 -322 -238 -625 -251 -675 -120 -448 104 -941 522 -1148 166
-82 288 -108 480 -103 156 4 264 28 387 84 61 28 205 118 233 146 36 35 2117
1881 2124 1884 5 2 243 -173 529 -387 287 -214 552 -407 589 -429 236 -136
505 -172 777 -102 92 23 221 82 302 138 33 22 281 207 553 411 l495 371 30
-29 c77 -72 2051 -1815 2112 -1864 248 -201 588 -271 904 -186 312 84 583 342
684 650 63 194 67 412 12 597 -13 43 -90 249 -171 458 -81 208 -279 719 -440
1134 -161 415 -415 1070 -565 1455 -149 385 -282 727 -295 760 -13 33 -337
868 -720 1855 -383 987 -718 1851 -745 1920 -40 102 -431 1109 -1419 3655 -86
221 -124 301 -184 390 -53 78 -176 201 -252 252 -108 73 -255 137 -360 157
-16 4 -41 9 -55 12 -56 12 -258 11 -328 -2z m353 -4249 c98 -253 210 -543 250
-645 39 -102 90 -232 113 -290 22 -58 173 -447 335 -865 813 -2093 1115 -2872
1122 -2894 6 -21 5 -23 -11 -17 -87 34 -261 57 -372 50 -153 -9 -320 -57 -449
-130 -36 -20 -313 -223 -616 -450 l-549 -414 -27 19 c-14 11 -266 199 -560
419 -554 415 -634 468 -786 515 -172 54 -394 61 -559 18 -44 -12 -80 -21 -81
-21 -2 0 29 80 67 178 38 97 127 328 198 512 71 184 167 432 213 550 45 118
407 1053 802 2077 396 1024 723 1858 726 1855 3 -4 86 -214 184 -467z"/>
</g>
</svg>
