<?xml version="1.0" standalone="no"?>
<!DOCTYPE svg PUBLIC "-//W3C//DTD SVG 20010904//EN"
 "http://www.w3.org/TR/2001/REC-SVG-20010904/DTD/svg10.dtd">
<svg version="1.0" xmlns="http://www.w3.org/2000/svg"
 width="800.000000pt" height="800.000000pt" viewBox="0 0 800.000000 800.000000"
 preserveAspectRatio="xMidYMid meet">
<metadata>
Created by potrace 1.14, written by Peter Selinger 2001-2017
</metadata>
<g transform="translate(0.000000,800.000000) scale(0.100000,-0.100000)"
fill="#000000" stroke="none">
<path d="M3749 7996 c-2 -2 -44 -7 -94 -10 -143 -11 -293 -33 -481 -70 -61
-12 -248 -59 -309 -78 -38 -12 -72 -22 -75 -23 -20 -4 -137 -46 -254 -91 -218
-85 -480 -219 -705 -361 l-34 -21 54 -58 c30 -32 65 -70 79 -85 14 -14 72 -77
130 -140 177 -191 204 -219 245 -263 22 -24 83 -89 135 -146 52 -57 106 -115
120 -130 14 -15 70 -76 125 -135 55 -60 117 -127 138 -149 22 -23 62 -66 89
-96 28 -30 78 -85 112 -121 34 -36 111 -119 171 -184 211 -229 250 -270 309
-333 84 -88 90 -104 15 -41 -86 72 -112 93 -414 339 -143 116 -269 219 -280
228 -11 9 -81 66 -155 126 -74 61 -137 112 -140 115 -3 3 -60 50 -128 105 -68
54 -129 104 -135 110 -7 6 -57 47 -112 91 -55 44 -102 82 -105 85 -17 17 -110
90 -115 90 -3 0 -4 -42 -1 -92 7 -128 16 -304 21 -418 6 -145 15 -326 20 -415
3 -44 7 -134 10 -200 3 -66 8 -158 10 -205 2 -47 7 -143 10 -215 l6 -130 -268
-173 c-548 -355 -757 -492 -752 -493 2 0 11 -2 19 -4 25 -5 61 -12 125 -24 33
-6 71 -13 85 -16 14 -3 39 -8 55 -10 17 -3 91 -17 165 -30 74 -13 151 -27 170
-30 19 -3 42 -8 50 -10 8 -2 26 -6 40 -8 14 -3 45 -8 70 -13 25 -4 48 -7 53
-6 4 1 7 -2 7 -7 0 -6 -21 -21 -47 -34 -27 -13 -73 -38 -103 -54 -30 -17 -113
-61 -185 -98 -71 -37 -134 -71 -140 -75 -5 -4 -68 -38 -140 -75 -71 -37 -143
-76 -160 -85 -16 -10 -75 -41 -130 -70 -55 -29 -122 -65 -150 -80 -27 -15 -78
-42 -113 -60 -34 -18 -62 -36 -62 -39 0 -5 378 -154 944 -374 17 -6 -6 -19
-114 -63 -74 -31 -148 -60 -163 -66 -16 -6 -25 -14 -20 -18 4 -4 109 -51 233
-105 124 -54 243 -105 265 -115 22 -10 114 -50 205 -90 91 -40 239 -105 330
-144 91 -40 240 -105 331 -145 l165 -73 69 -226 c38 -125 70 -231 71 -237 2
-5 64 -210 139 -455 95 -312 143 -452 159 -470 12 -14 62 -70 112 -125 49 -55
91 -102 94 -105 36 -35 181 -203 177 -206 -4 -4 -46 11 -112 41 -16 7 -115 48
-220 90 -104 42 -203 83 -220 90 -16 7 -94 39 -173 70 -78 32 -144 60 -146 64
-2 3 -9 40 -15 81 -6 41 -15 104 -21 140 -5 36 -12 83 -15 105 -3 22 -10 65
-15 95 -6 30 -12 71 -14 90 -6 41 -14 95 -26 170 -5 30 -12 78 -15 105 -3 28
-8 57 -10 65 -2 8 -7 35 -10 60 -3 25 -7 56 -9 70 -3 14 -7 41 -10 60 -12 79
-17 116 -21 136 -2 12 -6 47 -10 78 l-7 55 -107 41 c-115 45 -195 76 -226 90
-11 5 -103 41 -205 80 -102 39 -199 77 -217 85 -17 8 -34 15 -37 15 -3 0 -180
68 -393 151 -606 237 -660 258 -693 268 -14 5 -51 20 -83 34 -31 14 -61 27
-65 28 -10 2 -53 18 -77 28 -15 6 31 25 190 78 l209 69 -115 47 c-537 217
-663 267 -671 267 -8 0 -5 -52 7 -110 2 -13 7 -42 11 -65 79 -542 336 -1165
678 -1645 471 -661 1114 -1158 1861 -1437 117 -43 317 -108 385 -124 19 -4 73
-17 120 -28 47 -11 99 -22 115 -25 110 -21 212 -37 250 -41 25 -3 58 -7 73 -9
171 -29 712 -29 937 0 49 6 308 49 353 58 656 138 1299 459 1802 900 154 135
356 344 465 481 22 27 45 55 50 62 188 228 410 604 539 911 130 309 232 673
272 967 1 11 6 39 9 63 5 26 4 42 -2 42 -9 0 -457 -177 -508 -200 -11 -5 -72
-30 -135 -56 -63 -25 -120 -49 -127 -53 -7 -3 80 -37 193 -75 113 -38 204 -70
202 -71 -2 -2 -115 -47 -253 -99 -137 -53 -259 -101 -270 -106 -11 -5 -81 -32
-155 -60 -74 -28 -144 -55 -155 -60 -11 -5 -45 -19 -75 -30 -30 -11 -64 -25
-75 -29 -44 -20 -383 -151 -390 -151 -4 0 -21 -7 -38 -15 -18 -7 -178 -71
-357 -141 -179 -69 -330 -128 -336 -130 -6 -3 -18 -58 -28 -122 -9 -64 -18
-128 -21 -141 -2 -14 -9 -59 -15 -101 -6 -42 -13 -87 -15 -101 -3 -13 -7 -44
-10 -69 -4 -25 -10 -67 -15 -95 -5 -27 -11 -71 -15 -96 -3 -25 -8 -57 -10 -70
-2 -13 -6 -42 -10 -64 -3 -22 -10 -67 -15 -100 -12 -78 -19 -122 -24 -165 -6
-44 -17 -116 -21 -138 -2 -9 -4 -25 -4 -34 -1 -21 1 -21 -436 -199 -441 -179
-445 -181 -445 -170 0 5 3 11 8 13 4 1 47 48 96 103 140 158 228 255 268 299
32 35 59 94 74 161 1 6 9 33 17 60 9 28 35 111 57 185 47 152 77 253 150 490
28 91 53 174 55 185 3 11 18 61 34 110 16 50 37 118 46 152 17 60 19 62 69 84
28 12 74 32 101 44 28 13 115 51 195 85 79 34 167 72 195 85 27 13 259 114
515 225 256 112 469 206 473 210 5 4 -64 36 -152 71 -88 35 -157 67 -153 71 4
3 57 25 117 48 61 23 124 48 140 55 17 7 172 68 345 135 173 68 323 127 333
132 18 9 18 10 0 22 -10 7 -61 35 -113 63 -52 27 -131 69 -175 92 -44 24 -123
66 -175 94 -95 49 -165 87 -270 144 -30 17 -98 53 -150 80 -52 28 -133 71
-180 96 -47 25 -102 54 -123 65 -45 24 -45 23 88 47 50 9 137 25 195 35 58 11
143 26 190 35 47 8 96 17 110 20 25 5 125 23 168 30 66 11 67 15 16 48 -94 61
-349 227 -364 237 -8 6 -52 34 -97 63 -45 29 -179 115 -298 192 l-216 140 6
125 c6 120 9 180 20 410 2 58 7 157 10 220 3 63 8 151 10 195 3 44 7 134 10
200 6 137 12 275 20 423 4 56 3 102 0 102 -6 0 -129 -97 -171 -135 -6 -5 -51
-42 -100 -82 -49 -40 -182 -148 -295 -240 -113 -92 -223 -182 -245 -200 -21
-17 -52 -43 -69 -56 -37 -31 -633 -517 -694 -566 -85 -69 -59 -37 189 229 19
20 78 84 130 140 52 57 110 119 129 139 18 20 77 83 130 140 53 57 110 119
127 137 17 18 73 79 125 135 52 56 103 112 114 123 11 12 99 107 195 211 96
104 182 196 190 205 8 9 65 69 125 135 61 65 119 128 130 140 11 11 44 47 73
78 l54 58 -63 41 c-193 124 -469 263 -699 351 -137 53 -343 120 -420 137 -66
15 -82 19 -100 25 -23 7 -37 10 -195 39 -127 24 -167 30 -270 41 -27 3 -66 8
-85 11 -40 6 -615 15 -621 10z m-960 -4102 c179 -36 333 -68 341 -69 8 -2 22
-4 30 -4 8 -1 49 -57 90 -126 83 -137 91 -151 208 -343 45 -74 82 -136 82
-138 0 -2 -83 62 -184 141 l-185 146 -155 -4 -155 -4 -53 60 c-29 33 -58 65
-63 71 -6 6 -59 67 -120 136 -60 69 -114 130 -119 136 -32 33 -55 64 -49 64 4
0 153 -30 332 -66z m2751 59 c0 -5 -19 -28 -41 -53 -61 -66 -97 -107 -164
-185 -33 -38 -69 -79 -80 -91 -11 -11 -41 -46 -67 -76 l-48 -55 -157 3 c-153
4 -159 4 -184 -18 -15 -13 -81 -66 -149 -118 -67 -52 -136 -107 -153 -122 -17
-15 -33 -25 -35 -24 -2 3 197 336 243 406 13 19 34 53 47 75 73 128 68 122
133 135 33 7 71 14 85 16 14 3 32 7 40 9 8 3 31 7 50 10 19 4 130 26 245 50
233 48 235 48 235 38z m-1485 -2470 c28 -25 73 -67 101 -92 28 -25 89 -80 135
-122 46 -42 118 -106 159 -143 41 -37 76 -71 78 -75 2 -5 -55 -48 -126 -95
l-130 -87 -132 -200 c-73 -109 -136 -199 -140 -199 -3 0 -66 90 -140 200
l-133 200 -129 85 c-70 47 -128 89 -128 93 0 3 12 17 28 30 21 19 163 148 216
197 6 6 51 46 101 90 49 44 110 99 135 122 25 24 47 43 50 43 3 0 28 -21 55
-47z"/>
<path d="M1502 7125 c-472 -384 -837 -837 -1087 -1350 -70 -143 -80 -166 -120
-260 -96 -227 -206 -613 -239 -840 -4 -23 -8 -52 -11 -65 -3 -14 -7 -49 -11
-78 -3 -29 -7 -62 -9 -72 -19 -97 -29 -750 -13 -792 6 -15 17 -12 95 26 48 24
120 58 158 76 39 18 192 91 340 163 149 71 289 138 313 149 48 21 49 24 12 31
-23 5 -87 21 -440 113 -74 20 -136 37 -138 39 -2 2 21 19 50 40 95 65 334 228
478 325 78 52 204 138 280 190 159 108 438 297 459 309 11 8 13 67 12 347 -2
187 -4 560 -6 829 -5 782 -7 905 -14 905 -3 0 -52 -38 -109 -85z"/>
<path d="M6380 7003 c-1 -114 -3 -417 -5 -673 -8 -1019 -8 -1194 1 -1197 5 -2
86 -56 179 -119 94 -64 285 -194 425 -289 140 -95 303 -206 363 -246 59 -41
153 -105 208 -143 105 -71 108 -79 44 -89 -26 -4 -292 -72 -480 -123 -33 -9
-64 -17 -70 -18 -5 -2 22 -17 60 -36 181 -85 300 -143 420 -200 72 -34 162
-77 200 -95 39 -18 112 -53 163 -78 82 -41 94 -44 100 -29 4 9 7 150 7 312 0
257 -4 345 -20 485 -12 100 -15 122 -19 140 -2 11 -9 54 -16 95 -7 41 -19 104
-27 140 -8 36 -17 74 -19 84 -38 191 -167 559 -275 783 -21 44 -39 83 -39 86
0 3 -37 70 -81 149 -229 404 -484 724 -824 1032 -94 86 -221 190 -267 220
l-27 17 -1 -208z"/>
</g>
</svg>
