<svg xmlns="http://www.w3.org/2000/svg" width="106.104" height="48" viewBox="0 0 106.104 48">
  <path id="IMG_SoakVerse-Logo" d="M1096.291,80.42c0,3.911-3.028,6.971-8.3,6.971-4.952,0-8.8-2.366-9.053-7.129h6.593a2.1,2.1,0,0,0,2.239,2.24c1.1,0,1.956-.568,1.956-1.609-.031-3.564-10.819-1.893-10.724-9.62,0-4.353,3.627-6.687,8.327-6.687,5.11,0,8.453,2.492,8.674,6.908h-6.718a1.908,1.908,0,0,0-2.051-2.019,1.475,1.475,0,0,0-1.64,1.577C1085.6,74.364,1096.291,73.292,1096.291,80.42Zm24.918-4.447a11.4,11.4,0,1,1-11.387-11.387A11.155,11.155,0,0,1,1121.209,75.973Zm-6.277,0c0-3.5-1.924-5.709-5.109-5.709-3.217,0-5.11,2.208-5.11,5.709,0,3.438,1.893,5.678,5.11,5.678C1113.008,81.65,1114.932,79.411,1114.932,75.973Zm14.035,11.2h-6.5l8.106-22.237h7.129l8.074,22.237h-6.529l-1.2-3.628h-7.885Zm2.776-8.358h4.763l-2.4-7.192Zm36.682,8.358-8.579-11.45,8.169-10.788h-7.128l-6.908,9.589V64.933H1147.8V87.17h6.182V77.423l6.971,9.747Zm-62.167,22.167-6.907-18.957h-3.06l8.3,21.985h3.312l8.3-21.985h-3.028Zm13.09,3.028h11.828V110h-8.958v-7.57h8.012v-2.365h-8.012V92.715h8.958V90.349h-11.828Zm25.674-9.21,5.52,9.21H1147.1l-5.236-8.989H1138.4v8.989h-2.87V90.38h7.1c5.173,0,7.633,2.871,7.633,6.466A6.2,6.2,0,0,1,1145.022,103.155Zm-2.4-2.082c3.249,0,4.668-1.766,4.668-4.227,0-2.492-1.388-4.1-4.668-4.1H1138.4v8.327Zm14.509-4.983c0-2.366,1.86-3.6,4.226-3.533,2.681.032,4.068,1.7,4.258,3.186h3.154c-.346-3.344-3.091-5.646-7.286-5.646-4.352,0-7.286,2.46-7.286,6.088,0,8.169,11.891,4.384,11.891,10.314,0,2.082-1.64,3.659-4.416,3.659-3.06,0-4.353-1.829-4.542-3.659h-3.06c.063,3.628,3.186,6.088,7.6,6.088,4.763,0,7.318-3.091,7.318-6.214C1168.993,98.234,1157.134,101.767,1157.134,96.09Zm27.913-3.375V90.349h-11.828v22.016h11.828V110h-8.958v-7.57h8.012v-2.365h-8.012V92.715Z" transform="translate(-1078.943 -64.586)" fill="#fff"/>
</svg>
