<svg xmlns="http://www.w3.org/2000/svg" xmlns:xlink="http://www.w3.org/1999/xlink" width="1184.202" height="360" viewBox="0 0 1184.202 360">
  <defs>
    <filter id="IMG_SoakVerse-TXT" x="0" y="0" width="1184.202" height="360" filterUnits="userSpaceOnUse">
      <feOffset input="SourceAlpha"/>
      <feGaussianBlur stdDeviation="40" result="blur"/>
      <feFlood flood-color="#00b8ff"/>
      <feComposite operator="in" in2="blur"/>
      <feComposite in="SourceGraphic"/>
    </filter>
  </defs>
  <g transform="matrix(1, 0, 0, 1, 0, 0)" filter="url(#IMG_SoakVerse-TXT)">
    <path id="IMG_SoakVerse-TXT-2" data-name="IMG_SoakVerse-TXT" d="M888.462-75.7c0,20.582-15.933,36.681-43.651,36.681-26.058,0-46.307-12.448-47.635-37.511h34.69c.663,8.8,5.809,11.784,11.784,11.784,5.809,0,10.29-2.987,10.29-8.464-.167-18.755-56.93-9.959-56.433-50.623,0-22.9,19.088-35.187,43.818-35.187,26.889,0,44.482,13.112,45.644,36.348H851.615c-.331-7.3-4.813-10.622-10.787-10.622-4.813-.167-8.631,2.655-8.631,8.3C832.2-107.566,888.462-113.21,888.462-75.7Zm131.119-23.4c0,35.188-26.722,60.083-59.918,60.083S899.58-63.914,899.58-99.1s26.889-59.917,60.083-59.917C993.025-159.019,1019.581-134.288,1019.581-99.1Zm-33.03,0c0-18.423-10.125-30.041-26.888-30.041-16.93,0-26.889,11.618-26.889,30.041,0,18.092,9.959,29.877,26.889,29.877C976.426-69.226,986.551-81.01,986.551-99.1Zm119.829-58.091L1148.87-40.18h-34.357l-6.306-19.088h-41.5L1060.4-40.18h-34.19l42.655-117.013Zm-6.307,73.03-12.614-37.842-12.448,37.842Zm165.805-73.03h-37.51l-36.349,50.456v-50.456h-32.531V-40.18h32.531V-91.467L1228.7-40.18h39.336l-45.144-60.249Zm60.91,101.079-36.348-99.751h-16.1L1317.992-40.18h17.427l43.651-115.685h-15.933Zm68.876,15.934h62.24V-52.629h-47.137V-92.463h42.158v-12.448h-42.158v-38.672H1457.9v-12.448h-62.24Zm135.1-48.465,29.045,48.465h-18.091l-27.551-47.3h-18.257v47.3h-15.1V-155.865h37.345c27.22,0,40.167,15.1,40.167,34.026C1558.316-107.069,1550.182-92.961,1530.764-88.645ZM1518.149-99.6c17.1,0,24.564-9.295,24.564-22.24,0-13.112-7.3-21.577-24.564-21.577h-22.24V-99.6Zm76.345-26.224c0-12.448,9.793-18.922,22.241-18.591,14.108.167,21.41,8.963,22.406,16.764h16.6c-1.825-17.594-16.265-29.71-38.34-29.71-22.9,0-38.339,12.945-38.339,32.033,0,42.988,62.573,23.07,62.573,54.274C1641.632-60.1,1633-51.8,1618.4-51.8c-16.1,0-22.9-9.626-23.9-19.254h-16.1c.332,19.088,16.763,32.033,40,32.033,25.062,0,38.506-16.266,38.506-32.7C1656.9-114.537,1594.494-95.948,1594.494-125.823Zm146.884-17.76v-12.448h-62.24V-40.18h62.24V-52.629h-47.137V-92.463H1736.4v-12.448h-42.158v-38.672Z" transform="translate(-677.18 279.02)" fill="#fff"/>
  </g>
</svg>
