<svg id="IMG_Watermark" xmlns="http://www.w3.org/2000/svg" width="480" height="411.433" viewBox="0 0 480 411.433">
  <path id="Tracé_9" data-name="Tracé 9" d="M97.89,121.178l22-36.117,42.661-8.581L138.3,104.016l-17.977-.462Z" transform="translate(167.935 131.205)" fill="#e9ecec"/>
  <path id="Tracé_10" data-name="Tracé 10" d="M119.717,121.178l-22-36.117L55.06,76.48l24.25,27.536,17.95-.462Z" transform="translate(94.458 131.205)" fill="#e9ecec"/>
  <path id="Tracé_11" data-name="Tracé 11" d="M108.195,128.47,76.83,156.793l15.506,10.428,15.859,23.816,15.859-23.816,15.506-10.428Z" transform="translate(131.805 220.396)" fill="#e9ecec"/>
  <path id="Tracé_12" data-name="Tracé 12" d="M96.45,406.192,148.7,384.875l11.514-76.361L283.551,260.5l-24.386-8.119,55.37-22.349-63.408-30.305,36.008-9.369-75.139-51L213.056,0,96.45,125.838l98.194-80.081-4.725,97.515,59.5,38.669-49.993,9.179,72.913,38.914L215.608,252.22l19.443,7.848-89.5,39.1L121.46,378.357Z" transform="translate(165.464)" fill="#e9ecec"/>
  <path id="Tracé_13" data-name="Tracé 13" d="M218.086,406.192l-52.247-21.317-11.514-76.361L30.984,260.5l24.386-8.119L0,230.034l63.408-30.305L27.4,190.36l75.112-51L101.48,0,218.086,125.838,119.891,45.757l4.7,97.515-59.47,38.669,49.966,9.179L42.2,230.034,98.927,252.22l-19.443,7.848,89.5,39.1,24.087,79.185Z" fill="#e9ecec"/>
</svg>
