<svg xmlns="http://www.w3.org/2000/svg" width="20" height="15.158" viewBox="0 0 20 15.158">
  <path id="IMG_Discord" d="M16.942,1.269A16.541,16.541,0,0,0,12.816,0a11.336,11.336,0,0,0-.529,1.074,15.366,15.366,0,0,0-4.579,0A11.384,11.384,0,0,0,7.18,0,16.657,16.657,0,0,0,3.05,1.273,16.671,16.671,0,0,0,.085,12.618h0a16.632,16.632,0,0,0,5.061,2.541A12.223,12.223,0,0,0,6.229,13.41,10.763,10.763,0,0,1,4.523,12.6c.143-.1.283-.211.418-.315a11.888,11.888,0,0,0,10.118,0c.137.112.277.219.418.315a10.8,10.8,0,0,1-1.71.816,12.112,12.112,0,0,0,1.084,1.746,16.556,16.556,0,0,0,5.064-2.539h0A16.661,16.661,0,0,0,16.942,1.269ZM6.678,10.333a1.913,1.913,0,0,1-1.8-2,1.9,1.9,0,0,1,1.8-2,1.893,1.893,0,0,1,1.8,2A1.91,1.91,0,0,1,6.678,10.333Zm6.645,0a1.91,1.91,0,0,1-1.8-2,1.9,1.9,0,0,1,1.8-2,1.889,1.889,0,0,1,1.8,2A1.909,1.909,0,0,1,13.322,10.333Z" transform="translate(0)" fill="#e1b67e"/>
</svg>
