<svg xmlns="http://www.w3.org/2000/svg" width="20" height="18.333" viewBox="0 0 20 18.333">
  <path id="IMG_Friends" d="M7.292-924.667a3.058,3.058,0,0,1-1.719-.5A3.306,3.306,0,0,1,4.4-926.542a2.239,2.239,0,0,1-.844.677,2.449,2.449,0,0,1-1.052.24,2.4,2.4,0,0,1-1.781-.729A2.429,2.429,0,0,1,0-928.125a2.5,2.5,0,0,1,.583-1.615,2.165,2.165,0,0,1,1.479-.823,3.428,3.428,0,0,1-.448-.885,3.108,3.108,0,0,1-.156-.99A3.04,3.04,0,0,1,1.885-934a3.329,3.329,0,0,1,1.2-1.187,7,7,0,0,0,.281.8,3.536,3.536,0,0,0,.406.74,1.67,1.67,0,0,0-.458.552,1.457,1.457,0,0,0-.167.677,1.312,1.312,0,0,0,.958,1.438q.958.271,1.813.438l.4.667q-.229.667-.4,1.135a2.55,2.55,0,0,0-.167.844A1.533,1.533,0,0,0,6.2-926.8a1.455,1.455,0,0,0,1.094.469,1.572,1.572,0,0,0,1.313-.708,6.269,6.269,0,0,0,.854-1.667,12.848,12.848,0,0,0,.51-1.937q.177-.979.281-1.5l1.625.438q-.187.938-.458,2.146a12.09,12.09,0,0,1-.76,2.3,5.646,5.646,0,0,1-1.292,1.844A2.913,2.913,0,0,1,7.292-924.667Zm1.125-5.917q-.958-.854-1.74-1.594a14.718,14.718,0,0,1-1.344-1.437,6.105,6.105,0,0,1-.865-1.4,3.609,3.609,0,0,1-.3-1.448,3.1,3.1,0,0,1,.927-2.281,3.1,3.1,0,0,1,2.281-.927.9.9,0,0,1,.146.01.9.9,0,0,0,.146.01,2.378,2.378,0,0,1-.125-.417A2.228,2.228,0,0,1,7.5-940.5a2.411,2.411,0,0,1,.729-1.771A2.411,2.411,0,0,1,10-943a2.411,2.411,0,0,1,1.771.729A2.411,2.411,0,0,1,12.5-940.5a2.073,2.073,0,0,1-.042.427,2.459,2.459,0,0,1-.125.406h.292a3.032,3.032,0,0,1,2.125.8,3.229,3.229,0,0,1,1.042,1.99,5.167,5.167,0,0,0-.844-.062,8.312,8.312,0,0,0-.865.042,1.594,1.594,0,0,0-.531-.792,1.425,1.425,0,0,0-.927-.312,1.492,1.492,0,0,0-1.135.427q-.406.427-1.115,1.24H9.6q-.729-.854-1.135-1.26A1.478,1.478,0,0,0,7.375-938a1.5,1.5,0,0,0-1.1.438,1.5,1.5,0,0,0-.437,1.1,2.107,2.107,0,0,0,.271.99,6.113,6.113,0,0,0,.76,1.083,14.682,14.682,0,0,0,1.188,1.219q.7.646,1.552,1.4Zm4.271,5.917a3.36,3.36,0,0,1-.906-.125,3.124,3.124,0,0,1-.865-.4,5.908,5.908,0,0,0,.458-.687q.229-.4.417-.729a1.678,1.678,0,0,0,.458.208,1.732,1.732,0,0,0,.458.063,1.479,1.479,0,0,0,1.115-.469,1.558,1.558,0,0,0,.448-1.115,2.51,2.51,0,0,0-.167-.854q-.167-.458-.4-1.125l.4-.667q.875-.167,1.823-.437a1.311,1.311,0,0,0,.948-1.437,1.308,1.308,0,0,0-.615-1.208,2.531,2.531,0,0,0-1.344-.375,7.575,7.575,0,0,0-2.042.333q-1.167.333-2.729.854l-.438-1.625q1.625-.521,2.9-.875a8.748,8.748,0,0,1,2.333-.354,3.955,3.955,0,0,1,2.521.854,2.877,2.877,0,0,1,1.083,2.4,3.108,3.108,0,0,1-.156.99,3.428,3.428,0,0,1-.448.885,2.165,2.165,0,0,1,1.479.823A2.5,2.5,0,0,1,20-928.125a2.429,2.429,0,0,1-.719,1.771,2.4,2.4,0,0,1-1.781.729,2.449,2.449,0,0,1-1.052-.24,2.239,2.239,0,0,1-.844-.677,3.306,3.306,0,0,1-1.177,1.375A3.094,3.094,0,0,1,12.688-924.667Z" transform="translate(0 943)" fill="#e1b67e"/>
</svg>
