<svg xmlns="http://www.w3.org/2000/svg" width="20" height="14.595" viewBox="0 0 20 14.595">
  <path id="IMG_Games" d="M45.352-785.4a3.167,3.167,0,0,1-2.338-.981A3.419,3.419,0,0,1,42-788.757a3.713,3.713,0,0,1,.023-.41,3.85,3.85,0,0,1,.068-.41l1.916-7.662a3.6,3.6,0,0,1,1.3-2A3.539,3.539,0,0,1,47.542-800h8.894a3.539,3.539,0,0,1,2.235.764,3.6,3.6,0,0,1,1.3,2l1.916,7.662q.046.205.08.422a2.7,2.7,0,0,1,.034.422,3.175,3.175,0,0,1-.992,2.36,3.288,3.288,0,0,1-2.383.969,3.349,3.349,0,0,1-1.779-.5,3.154,3.154,0,0,1-1.231-1.368l-.639-1.323a.746.746,0,0,0-.342-.342,1.058,1.058,0,0,0-.479-.114H49.822a1.058,1.058,0,0,0-.479.114A.746.746,0,0,0,49-788.6l-.639,1.323a3.154,3.154,0,0,1-1.231,1.368A3.349,3.349,0,0,1,45.352-785.4Zm8-8.21a.883.883,0,0,0,.65-.262.883.883,0,0,0,.262-.65.883.883,0,0,0-.262-.65.883.883,0,0,0-.65-.262.883.883,0,0,0-.65.262.883.883,0,0,0-.262.65.883.883,0,0,0,.262.65A.883.883,0,0,0,53.357-793.615Zm1.824-1.824a.883.883,0,0,0,.65-.262.883.883,0,0,0,.262-.65.883.883,0,0,0-.262-.65.883.883,0,0,0-.65-.262.883.883,0,0,0-.65.262.883.883,0,0,0-.262.65.883.883,0,0,0,.262.65A.883.883,0,0,0,55.181-795.439Zm0,3.649a.883.883,0,0,0,.65-.262.883.883,0,0,0,.262-.65.883.883,0,0,0-.262-.65.883.883,0,0,0-.65-.262.883.883,0,0,0-.65.262.883.883,0,0,0-.262.65.883.883,0,0,0,.262.65A.883.883,0,0,0,55.181-791.79Zm1.824-1.825a.883.883,0,0,0,.65-.262.883.883,0,0,0,.262-.65.883.883,0,0,0-.262-.65.883.883,0,0,0-.65-.262.883.883,0,0,0-.65.262.883.883,0,0,0-.262.65.883.883,0,0,0,.262.65A.883.883,0,0,0,57.006-793.615Zm-8.21,1.368a.665.665,0,0,0,.49-.194.665.665,0,0,0,.194-.49v-.912h.912a.664.664,0,0,0,.49-.194.664.664,0,0,0,.194-.49.665.665,0,0,0-.194-.49.665.665,0,0,0-.49-.194H49.48v-.912a.665.665,0,0,0-.194-.49.665.665,0,0,0-.49-.194.665.665,0,0,0-.49.194.665.665,0,0,0-.194.49v.912H47.2a.665.665,0,0,0-.49.194.665.665,0,0,0-.194.49.664.664,0,0,0,.194.49.664.664,0,0,0,.49.194h.912v.912a.665.665,0,0,0,.194.49A.665.665,0,0,0,48.8-792.246Z" transform="translate(-42 800)" fill="#fff"/>
</svg>
