<svg xmlns="http://www.w3.org/2000/svg" width="15.429" height="18" viewBox="0 0 15.429 18">
  <path id="IMG_Marketplace" d="M121.714-902a1.651,1.651,0,0,1-1.211-.5,1.651,1.651,0,0,1-.5-1.211V-914a1.651,1.651,0,0,1,.5-1.211,1.651,1.651,0,0,1,1.211-.5h1.714a4.13,4.13,0,0,1,1.254-3.032A4.13,4.13,0,0,1,127.714-920a4.13,4.13,0,0,1,3.032,1.254A4.13,4.13,0,0,1,132-915.714h1.714a1.651,1.651,0,0,1,1.211.5,1.651,1.651,0,0,1,.5,1.211v10.286a1.651,1.651,0,0,1-.5,1.211,1.651,1.651,0,0,1-1.211.5Zm6-6.857a4.13,4.13,0,0,0,3.032-1.254A4.13,4.13,0,0,0,132-913.143h-1.714a2.48,2.48,0,0,1-.75,1.821,2.48,2.48,0,0,1-1.821.75,2.48,2.48,0,0,1-1.821-.75,2.48,2.48,0,0,1-.75-1.821h-1.714a4.13,4.13,0,0,0,1.254,3.032A4.13,4.13,0,0,0,127.714-908.857Zm-2.571-6.857h5.143a2.48,2.48,0,0,0-.75-1.821,2.48,2.48,0,0,0-1.821-.75,2.48,2.48,0,0,0-1.821.75A2.48,2.48,0,0,0,125.143-915.714Z" transform="translate(-120 920)" fill="#e1b67e"/>
</svg>
