<svg xmlns="http://www.w3.org/2000/svg" width="18" height="18" viewBox="0 0 18 18">
  <path id="IMG_Profile" d="M83.465-866.41a9.393,9.393,0,0,1,2.565-1.384A8.763,8.763,0,0,1,89-868.3a8.763,8.763,0,0,1,2.97.506,9.393,9.393,0,0,1,2.565,1.384,6.956,6.956,0,0,0,1.226-2.092A7.054,7.054,0,0,0,96.2-871a6.941,6.941,0,0,0-2.1-5.1,6.941,6.941,0,0,0-5.1-2.1,6.941,6.941,0,0,0-5.1,2.1,6.941,6.941,0,0,0-2.1,5.1,7.054,7.054,0,0,0,.439,2.5A6.957,6.957,0,0,0,83.465-866.41ZM89-870.1a3.043,3.043,0,0,1-2.239-.911,3.043,3.043,0,0,1-.911-2.239,3.043,3.043,0,0,1,.911-2.239A3.043,3.043,0,0,1,89-876.4a3.043,3.043,0,0,1,2.239.911,3.043,3.043,0,0,1,.911,2.239,3.043,3.043,0,0,1-.911,2.239A3.043,3.043,0,0,1,89-870.1Zm0,8.1a8.764,8.764,0,0,1-3.51-.709,9.089,9.089,0,0,1-2.857-1.924,9.089,9.089,0,0,1-1.924-2.857A8.764,8.764,0,0,1,80-871a8.764,8.764,0,0,1,.709-3.51,9.088,9.088,0,0,1,1.924-2.857,9.088,9.088,0,0,1,2.857-1.924A8.763,8.763,0,0,1,89-880a8.763,8.763,0,0,1,3.51.709,9.088,9.088,0,0,1,2.858,1.924,9.088,9.088,0,0,1,1.924,2.857A8.764,8.764,0,0,1,98-871a8.764,8.764,0,0,1-.709,3.51,9.089,9.089,0,0,1-1.924,2.857,9.089,9.089,0,0,1-2.858,1.924A8.764,8.764,0,0,1,89-862Z" transform="translate(-80 880)" fill="#06262d"/>
</svg>
