<svg xmlns="http://www.w3.org/2000/svg" width="18" height="18" viewBox="0 0 18 18">
  <path id="IMG_Rewards" d="M129-832a1.926,1.926,0,0,0,1.412-.588A1.926,1.926,0,0,0,131-834a1.926,1.926,0,0,0-.587-1.412A1.925,1.925,0,0,0,129-836a1.925,1.925,0,0,0-1.413.588A1.926,1.926,0,0,0,127-834a1.926,1.926,0,0,0,.587,1.413A1.926,1.926,0,0,0,129-832Zm-5,10v-2h4v-3.1a5.369,5.369,0,0,1-2.188-1.037,4.48,4.48,0,0,1-1.413-1.912,4.855,4.855,0,0,1-3.137-1.638A4.812,4.812,0,0,1,120-835v-1a1.926,1.926,0,0,1,.588-1.412A1.926,1.926,0,0,1,122-838h2v-2h10v2h2a1.926,1.926,0,0,1,1.413.588A1.926,1.926,0,0,1,138-836v1a4.812,4.812,0,0,1-1.263,3.313,4.855,4.855,0,0,1-3.137,1.638,4.479,4.479,0,0,1-1.413,1.912A5.369,5.369,0,0,1,130-827.1v3.1h4v2Zm0-10.2V-836h-2v1a2.857,2.857,0,0,0,.55,1.713A3,3,0,0,0,124-832.2Zm10,0a3,3,0,0,0,1.45-1.088A2.857,2.857,0,0,0,136-835v-1h-2Z" transform="translate(-120 840)" fill="#e1b67e"/>
</svg>
