<svg xmlns="http://www.w3.org/2000/svg" width="24" height="24" viewBox="0 0 24 24">
  <path id="IMG_Rewards" d="M132-829.333a2.568,2.568,0,0,0,1.883-.783,2.568,2.568,0,0,0,.783-1.883,2.568,2.568,0,0,0-.783-1.883,2.567,2.567,0,0,0-1.883-.783,2.567,2.567,0,0,0-1.883.783,2.568,2.568,0,0,0-.783,1.883,2.568,2.568,0,0,0,.783,1.883A2.568,2.568,0,0,0,132-829.333ZM125.333-816v-2.667h5.333V-822.8a7.159,7.159,0,0,1-2.917-1.383,5.973,5.973,0,0,1-1.883-2.55,6.474,6.474,0,0,1-4.183-2.183A6.416,6.416,0,0,1,120-833.333v-1.333a2.568,2.568,0,0,1,.783-1.883,2.568,2.568,0,0,1,1.883-.783h2.667V-840h13.333v2.667h2.667a2.568,2.568,0,0,1,1.883.783,2.568,2.568,0,0,1,.783,1.883v1.333a6.416,6.416,0,0,1-1.683,4.417,6.473,6.473,0,0,1-4.183,2.183,5.972,5.972,0,0,1-1.883,2.55,7.158,7.158,0,0,1-2.917,1.383v4.133h5.333V-816Zm0-13.6v-5.067h-2.667v1.333a3.809,3.809,0,0,0,.733,2.283A4,4,0,0,0,125.333-829.6Zm13.333,0a4,4,0,0,0,1.933-1.45,3.809,3.809,0,0,0,.733-2.283v-1.333h-2.667Z" transform="translate(-120 840)" fill="#fff"/>
</svg>
