<svg xmlns="http://www.w3.org/2000/svg" width="20" height="20" viewBox="0 0 20 20">
  <path id="IMG_Rocket" d="M16.115,16.165s2.924-2.924,3.923-3.921c3.137-3.137,1.568-9.412,1.568-9.412S15.331,1.263,12.194,4.4c-2.345,2.345-3.908,3.96-3.908,3.96S4.351,7.538,2,9.891L14.547,22.44C16.9,20.087,16.115,16.165,16.115,16.165Zm-1.538-9.2a2.048,2.048,0,1,1,0,2.9A2.046,2.046,0,0,1,14.577,6.964ZM2.992,21.414a8,8,0,0,0,5.12-2.048L5.04,16.294C2.992,17.318,2.992,21.414,2.992,21.414Z" transform="translate(-1.998 -2.44)" fill="#fff"/>
</svg>
