<svg xmlns="http://www.w3.org/2000/svg" width="16" height="15.98" viewBox="0 0 16 15.98">
  <path id="IMG_Search" d="M103.179-847.02l-5.3-5.3a5.075,5.075,0,0,1-1.381.655,5.714,5.714,0,0,1-1.708.246,5.585,5.585,0,0,1-4.1-1.688A5.584,5.584,0,0,1,89-857.21a5.584,5.584,0,0,1,1.688-4.1A5.585,5.585,0,0,1,94.79-863a5.585,5.585,0,0,1,4.1,1.688,5.584,5.584,0,0,1,1.688,4.1,5.588,5.588,0,0,1-.246,1.708,4.809,4.809,0,0,1-.655,1.34l5.32,5.34ZM94.79-854a3.1,3.1,0,0,0,2.281-.931A3.1,3.1,0,0,0,98-857.21a3.1,3.1,0,0,0-.931-2.281,3.1,3.1,0,0,0-2.281-.931,3.1,3.1,0,0,0-2.281.931,3.1,3.1,0,0,0-.931,2.281,3.1,3.1,0,0,0,.931,2.281A3.1,3.1,0,0,0,94.79-854Z" transform="translate(-89 863)" fill="#455d62"/>
</svg>
