<svg xmlns="http://www.w3.org/2000/svg" width="188.839" height="24" viewBox="0 0 188.839 24">
  <path id="IMG_SoakVerse-Logo" d="M18.257,16.664C18.257,20.78,15.07,24,9.527,24,4.315,24,.266,21.511,0,16.5H6.938a2.215,2.215,0,0,0,2.356,2.356c1.162,0,2.058-.6,2.058-1.693C11.319,13.411-.033,15.17.066,7.038.066,2.457,3.884,0,8.83,0c5.377,0,8.9,2.623,9.129,7.27H10.888A2.008,2.008,0,0,0,8.73,5.145,1.552,1.552,0,0,0,7,6.805c0,3.485,11.253,2.356,11.253,9.859M44.48,11.983A11.739,11.739,0,0,1,32.5,24,11.767,11.767,0,0,1,20.48,11.983,11.739,11.739,0,0,1,32.5,0,11.692,11.692,0,0,1,44.48,11.983m-6.606,0c0-3.685-2.025-6.008-5.378-6.008-3.385,0-5.377,2.323-5.377,6.008,0,3.618,1.992,5.975,5.377,5.975,3.353,0,5.378-2.357,5.378-5.975M61.84.365l8.5,23.4H63.467L62.206,19.95h-8.3l-1.262,3.818H45.807L54.338.365ZM60.579,14.971,58.056,7.4l-2.49,7.568ZM93.74.365h-7.5l-7.27,10.091V.365H72.461v23.4h6.507V13.511L86.3,23.768h7.867l-9.029-12.05Zm12.182,20.215L98.652.631h-3.22l8.73,23.137h3.486L116.378.631h-3.187ZM119.7,23.768h12.448v-2.49h-9.427V13.311h8.432V10.822h-8.432V3.087h9.427V.6H119.7Zm27.02-9.693,5.809,9.693h-3.618l-5.51-9.461h-3.652v9.461h-3.021V.631h7.469c5.444,0,8.033,3.021,8.033,6.8a6.524,6.524,0,0,1-5.51,6.639m-2.523-2.191c3.419,0,4.913-1.859,4.913-4.448,0-2.622-1.46-4.315-4.913-4.315h-4.448v8.763Zm15.269-5.244c0-2.49,1.959-3.785,4.448-3.718,2.822.033,4.282,1.792,4.481,3.352h3.319c-.365-3.518-3.253-5.941-7.668-5.941-4.581,0-7.668,2.589-7.668,6.406,0,8.6,12.515,4.615,12.515,10.855,0,2.191-1.726,3.851-4.648,3.851-3.219,0-4.581-1.925-4.78-3.851h-3.22c.067,3.818,3.353,6.407,8,6.407,5.012,0,7.7-3.253,7.7-6.54,0-8.564-12.481-4.846-12.481-10.821m29.376-3.552V.6H176.391v23.17h12.448v-2.49h-9.427V13.311h8.432V10.822h-8.432V3.087Z" fill="#fff"/>
</svg>
