<svg xmlns="http://www.w3.org/2000/svg" xmlns:xlink="http://www.w3.org/1999/xlink" width="22.291" height="28" viewBox="0 0 22.291 28">
  <defs>
    <linearGradient id="linear-gradient" x1="0.5" y1="1" x2="0.5" gradientUnits="objectBoundingBox">
      <stop offset="0" stop-color="#f8a764"/>
      <stop offset="1" stop-color="#e75b75"/>
    </linearGradient>
  </defs>
  <path id="IMG_Soul" d="M70.791,8.079c.744,1.892-.6,4.763-2.478,3.76-1.386-.74-1.025-2.083.025-3.965,1.491-2.671-1.1-4.539-1.1-4.539s-.493,3.4-3.322,2.811c-2.42-.5-2.52-4.641-1.472-6.147C58.66.449,58.1,5.882,59.872,7.883c2.125,2.406,1.727,5.614-1.01,5.5-1.99-.082-2.91-2.567-1.857-5.016-3.6,1.488-5.042,6.01-4.776,8.844a11.132,11.132,0,0,0,22.254-.665C74.459,14.448,73.987,10.223,70.791,8.079Z" transform="translate(-52.198)" fill="url(#linear-gradient)"/>
</svg>
