<svg xmlns="http://www.w3.org/2000/svg" width="20" height="16" viewBox="0 0 20 16">
  <path id="IMG_Wallet" d="M84-784a3.852,3.852,0,0,1-2.825-1.175A3.852,3.852,0,0,1,80-788v-8a3.852,3.852,0,0,1,1.175-2.825A3.852,3.852,0,0,1,84-800H96a3.852,3.852,0,0,1,2.825,1.175A3.852,3.852,0,0,1,100-796v8a3.852,3.852,0,0,1-1.175,2.825A3.852,3.852,0,0,1,96-784Zm0-12H96a4.315,4.315,0,0,1,1.05.125,3.389,3.389,0,0,1,.95.4V-796a1.926,1.926,0,0,0-.588-1.412A1.926,1.926,0,0,0,96-798H84a1.926,1.926,0,0,0-1.412.588A1.926,1.926,0,0,0,82-796v.525a3.389,3.389,0,0,1,.95-.4A4.315,4.315,0,0,1,84-796Zm-1.85,3.25,11.125,2.7a1.025,1.025,0,0,0,.45,0,1.1,1.1,0,0,0,.425-.2l3.475-2.9a2.164,2.164,0,0,0-.7-.612A1.865,1.865,0,0,0,96-794H84a1.948,1.948,0,0,0-1.137.338A1.942,1.942,0,0,0,82.15-792.75Z" transform="translate(-80 800)" fill="#e1b67e"/>
</svg>
